<svg width="48" height="48" viewBox="0 0 48 48" fill="none" xmlns="http://www.w3.org/2000/svg">
<path d="M48 24C48 10.7452 37.2548 0 24 0C10.7452 0 0 10.7452 0 24C0 37.2548 10.7452 48 24 48C37.2548 48 48 37.2548 48 24Z" fill="#7289DA"/>
<path d="M21.828 23.568C21.144 23.568 20.604 24.168 20.604 24.9C20.604 25.632 21.156 26.232 21.828 26.232C22.512 26.232 23.052 25.632 23.052 24.9C23.064 24.168 22.512 23.568 21.828 23.568ZM26.208 23.568C25.524 23.568 24.984 24.168 24.984 24.9C24.984 25.632 25.536 26.232 26.208 26.232C26.892 26.232 27.432 25.632 27.432 24.9C27.432 24.168 26.892 23.568 26.208 23.568Z" fill="white"/>
<path d="M32.04 13.5H15.96C14.604 13.5 13.5 14.604 13.5 15.972V32.196C13.5 33.564 14.604 34.668 15.96 34.668H29.568L28.932 32.448L30.468 33.876L31.92 35.22L34.5 37.5V15.972C34.5 14.604 33.396 13.5 32.04 13.5ZM27.408 29.172C27.408 29.172 26.976 28.656 26.616 28.2C28.188 27.756 28.788 26.772 28.788 26.772C28.296 27.096 27.828 27.324 27.408 27.48C26.808 27.732 26.232 27.9 25.668 27.996C24.516 28.212 23.46 28.152 22.56 27.984C21.876 27.852 21.288 27.66 20.796 27.468C20.52 27.36 20.22 27.228 19.92 27.06C19.884 27.036 19.848 27.024 19.812 27C19.788 26.988 19.776 26.976 19.764 26.964C19.548 26.844 19.428 26.76 19.428 26.76C19.428 26.76 20.004 27.72 21.528 28.176C21.168 28.632 20.724 29.172 20.724 29.172C18.072 29.088 17.064 27.348 17.064 27.348C17.064 23.484 18.792 20.352 18.792 20.352C20.52 19.056 22.164 19.092 22.164 19.092L22.284 19.236C20.124 19.86 19.128 20.808 19.128 20.808C19.128 20.808 19.392 20.664 19.836 20.46C21.12 19.896 22.14 19.74 22.56 19.704C22.632 19.692 22.692 19.68 22.764 19.68C23.496 19.584 24.324 19.56 25.188 19.656C26.328 19.788 27.552 20.124 28.8 20.808C28.8 20.808 27.852 19.908 25.812 19.284L25.98 19.092C25.98 19.092 27.624 19.056 29.352 20.352C29.352 20.352 31.08 23.484 31.08 27.348C31.08 27.348 30.06 29.088 27.408 29.172Z" fill="white"/>
</svg>
