<svg width="51" height="48" viewBox="0 0 51 48" fill="none" xmlns="http://www.w3.org/2000/svg">
<path d="M0.4375 24C0.4375 37.2548 11.7337 48 25.6683 48C39.6028 48 50.899 37.2548 50.899 24C50.899 10.7452 39.6028 0 25.6683 0C11.7337 0 0.4375 10.7452 0.4375 24Z" fill="#231E1B"/>
<path fill-rule="evenodd" clip-rule="evenodd" d="M25.6315 12.2891C18.6872 12.2891 13.0547 17.6469 13.0547 24.2524C13.0547 29.5368 16.6811 34.0138 21.6193 35.6285C22.2365 35.7019 22.468 35.3349 22.468 35.0414C22.468 34.7478 22.468 34.0138 22.468 32.9863C18.9959 33.7203 18.2243 31.3716 18.2243 31.3716C17.6842 29.9771 16.8354 29.6102 16.8354 29.6102C15.6781 28.8762 16.9126 28.8762 16.9126 28.8762C18.1471 28.9496 18.8416 30.1239 18.8416 30.1239C19.9989 31.9588 21.7736 31.445 22.468 31.1514C22.5452 30.3441 22.931 29.8303 23.2396 29.5368C20.4619 29.2432 17.5299 28.2157 17.5299 23.5918C17.5299 22.2707 17.9928 21.2432 18.8416 20.3625C18.7644 20.1423 18.3015 18.8946 18.9959 17.2799C18.9959 17.2799 20.0761 16.9863 22.468 18.5276C23.4711 18.234 24.5513 18.1606 25.6315 18.1606C26.7117 18.1606 27.7919 18.3074 28.795 18.5276C31.1869 16.9863 32.2671 17.2799 32.2671 17.2799C32.9615 18.8946 32.4986 20.1423 32.4214 20.4359C33.193 21.2432 33.7331 22.3441 33.7331 23.6652C33.7331 28.2891 30.8011 29.2432 28.0234 29.5368C28.4863 29.9037 28.8721 30.6377 28.8721 31.7386C28.8721 33.3533 28.8721 34.601 28.8721 35.0414C28.8721 35.3349 29.1036 35.7019 29.7209 35.6285C34.7362 34.0138 38.2855 29.5368 38.2855 24.2524C38.2083 17.6469 32.5757 12.2891 25.6315 12.2891Z" fill="white"/>
</svg>
