<svg width="49" height="48" viewBox="0 0 49 48" fill="none" xmlns="http://www.w3.org/2000/svg">
<path d="M0.328125 24C0.328125 37.2548 11.0733 48 24.3281 48C37.583 48 48.3281 37.2548 48.3281 24C48.3281 10.7452 37.583 0 24.3281 0C11.0733 0 0.328125 10.7452 0.328125 24Z" fill="#2867B2"/>
<path d="M17.7281 36H12.6281V19.95H17.7281V36ZM15.1781 17.7C13.5281 17.7 12.3281 16.5 12.3281 14.85C12.3281 13.2 13.6781 12 15.1781 12C16.8281 12 18.0281 13.2 18.0281 14.85C18.0281 16.5 16.8281 17.7 15.1781 17.7ZM36.3281 36H31.2281V27.3C31.2281 24.75 30.1781 24 28.6781 24C27.1781 24 25.6781 25.2 25.6781 27.45V36H20.5781V19.95H25.3781V22.2C25.8281 21.15 27.6281 19.5 30.1781 19.5C33.0281 19.5 36.0281 21.15 36.0281 26.1V36H36.3281Z" fill="white"/>
</svg>
